<svg xmlns="http://www.w3.org/2000/svg" version="1.1" xmlns:xlink="http://www.w3.org/1999/xlink" xmlns:svgjs="http://svgjs.dev/svgjs" width="1000" height="1000" viewBox="0 0 1000 1000"><rect width="1000" height="1000" fill="#ffffff"></rect><g transform="matrix(0.7,0,0,0.7,149.57575757575756,282.1265587044535)"><svg viewBox="0 0 396 247" data-background-color="#ffffff" preserveAspectRatio="xMidYMid meet" height="623" width="1000" xmlns="http://www.w3.org/2000/svg" xmlns:xlink="http://www.w3.org/1999/xlink"><g id="tight-bounds" transform="matrix(1,0,0,1,0.2400000000000091,-0.09999999999999432)"><svg viewBox="0 0 395.52 247.2" height="247.2" width="395.52"><g><svg></svg></g><g><svg viewBox="0 0 395.52 247.2" height="247.2" width="395.52"><g><path xmlns="http://www.w3.org/2000/svg" d="M55.039 247.2l26.403-45.732h5.303l-23.606 40.888h269.242l-23.606-40.888 5.303 0 26.403 45.732zM197.76 0l26.403 45.732-5.303 0-21.1-36.547-21.1 36.547-5.303 0z" fill="#111111" fill-rule="nonzero" stroke="none" stroke-width="1" stroke-linecap="butt" stroke-linejoin="miter" stroke-miterlimit="10" stroke-dasharray="" stroke-dashoffset="0" font-family="none" font-weight="none" font-size="none" text-anchor="none" style="mix-blend-mode: normal" data-fill-palette-color="tertiary"></path></g><g transform="matrix(1,0,0,1,57.41023913369571,67.97999999999999)"><svg viewBox="0 0 280.69952173260856 111.24" height="111.24" width="280.69952173260856"><g><svg viewBox="0 0 398.9430788340693 158.09940756427898" height="111.24" width="280.69952173260856"><g transform="matrix(1,0,0,1,168.50780185231866,0)"><svg viewBox="0 0 230.43527698175063 158.09940756427898" height="158.09940756427898" width="230.43527698175063"><g><svg viewBox="0 0 230.43527698175063 158.09940756427898" height="158.09940756427898" width="230.43527698175063" id="textblock"><g><rect width="230.43527698175063" height="9.969741858841978" x="0" y="122.29699710491856" fill="#000000" opacity="1" stroke-width="0" stroke="transparent" fill-opacity="1" class="rect-o-0" data-fill-palette-color="primary" rx="1%" id="o-0" data-palette-color="#111111"></rect></g><g transform="matrix(1,0,0,1,0.5732220820441398,0)"><svg viewBox="0 0 229.28883281766235 110.5525368" height="110.5525368" width="229.28883281766235"><g transform="matrix(1,0,0,1,0,0)"><svg width="229.28883281766235" viewBox="1.0499999523162842 -38.5 79.8499984741211 38.5" height="110.5525368" data-palette-color="#111111"><path d="M38.8-38.5L39.3-28.95 37.25-28.95Q37.1-31.1 36.55-32.55 36-34 34.98-34.83 33.95-35.65 32.4-36 30.85-36.35 28.7-36.35L28.7-36.35Q26.85-36.35 25.73-36.27 24.6-36.2 24-36 23.4-35.8 23.23-35.52 23.05-35.25 23.05-34.8L23.05-34.8 23.05-8.05Q23.05-6.45 23.28-5.3 23.5-4.15 24.18-3.43 24.85-2.7 26.13-2.33 27.4-1.95 29.5-1.9L29.5-1.9 29.5 0 10.6 0 10.6-1.9Q12.7-1.95 14-2.33 15.3-2.7 15.98-3.43 16.65-4.15 16.88-5.3 17.1-6.45 17.1-8.05L17.1-8.05 17.1-34.8Q17.1-35.25 16.93-35.52 16.75-35.8 16.23-36 15.7-36.2 14.75-36.27 13.8-36.35 12.2-36.35L12.2-36.35Q10.25-36.35 8.58-36.2 6.9-36.05 5.68-35.33 4.45-34.6 3.7-33.1 2.95-31.6 2.9-28.95L2.9-28.95 1.05-28.95 1.05-38.5 38.8-38.5ZM73.05-28.85L73.05-28.85Q73.05-24.85 70.65-22.2 68.25-19.55 63-18.65L63-18.65 74.05-5.35Q75.4-3.7 77.02-2.98 78.65-2.25 80.9-1.9L80.9-1.9 80.9 0 71.25 0 59-15.7Q58.35-16.55 57.77-17.05 57.2-17.55 56.57-17.82 55.95-18.1 55.12-18.18 54.3-18.25 53.15-18.25L53.15-18.25 53.15-7.85Q53.15-6 53.37-4.83 53.6-3.65 54.32-3 55.05-2.35 56.42-2.13 57.8-1.9 60.05-1.9L60.05-1.9 60.05 0 42.4 0 42.4-1.9Q44.15-1.95 45.22-2.2 46.3-2.45 46.9-3.05 47.5-3.65 47.7-4.75 47.9-5.85 47.9-7.6L47.9-7.6 47.9-30.9Q47.9-32.65 47.72-33.73 47.55-34.8 47.02-35.43 46.5-36.05 45.5-36.27 44.5-36.5 42.9-36.6L42.9-36.6 42.9-38.5 58.6-38.5Q65.5-38.5 69.27-35.95 73.05-33.4 73.05-28.85ZM53.15-35.3L53.15-20.75 56.7-20.75Q61.7-20.75 64.12-22.58 66.55-24.4 66.55-28.6L66.55-28.6Q66.55-32.65 64.62-34.4 62.7-36.15 58.6-36.15L58.6-36.15 54-36.15Q53.15-36.15 53.15-35.3L53.15-35.3Z" opacity="1" transform="matrix(1,0,0,1,0,0)" fill="#000000" class="undefined-text-0" data-fill-palette-color="primary" id="text-0"></path></svg></g></svg></g><g transform="matrix(1,0,0,1,0,144.0111992686791)"><svg viewBox="0 0 134.61547374724955 14.088208295599873" height="14.088208295599873" width="134.61547374724955"><g transform="matrix(1,0,0,1,0,0)"><svg width="134.61547374724955" viewBox="2.25 -35.45000076293945 432.79998779296875 45.30000305175781" height="14.088208295599873" data-palette-color="#1176d3"><path d="M3.55-35L21.2-35Q22.05-35 22.05-30.58 22.05-26.15 21.2-26.15L21.2-26.15 12.05-26.15 12.05-20.45 18.15-20.45Q19-20.45 19-16.57 19-12.7 18.2-12.7L18.2-12.7 12.05-12.7 12.05-0.65Q12.05 0.05 10.18 0.28 8.3 0.5 7.05 0.5L7.05 0.5 4.7 0.4Q2.25 0.1 2.25-0.6L2.25-0.6 2.25-33.7Q2.25-34.5 2.58-34.75 2.9-35 3.55-35L3.55-35ZM35.55-14L35.55-0.05Q35.55 0.3 31 0.3L31 0.3Q26.45 0.2 26.45-0.1L26.45-0.1 26.45-16.7 25.1-16.7Q24.3-16.7 23.82-17.68 23.35-18.65 23.35-20.1L23.35-20.1Q23.35-25.5 26.55-25.5L26.55-25.5Q28.8-25.5 30.3-24.13 31.8-22.75 31.8-21L31.8-21Q32.85-23.05 34.62-24.28 36.4-25.5 38.25-25.5L38.25-25.5Q41.15-25.5 41.75-24L41.75-24Q41.9-23.6 41.9-22.83 41.9-22.05 41.42-20.05 40.95-18.05 40.45-17.15 39.95-16.25 39.85-16.25 39.75-16.25 38.92-16.63 38.1-17 37.45-17L37.45-17Q35.55-17 35.55-14L35.55-14ZM46.57-2.95Q43.45-6.4 43.45-12.5 43.45-18.6 46.57-22.05 49.7-25.5 55-25.5 60.3-25.5 63.4-22.05 66.5-18.6 66.5-12.5 66.5-6.4 63.4-2.95 60.3 0.5 55 0.5 49.7 0.5 46.57-2.95ZM55.02-17.15Q52.2-17.15 52.2-12.55 52.2-7.95 55.02-7.95 57.85-7.95 57.85-12.55 57.85-17.15 55.02-17.15ZM92.69-16.3L92.69-0.25Q92.69 0.1 88.42 0.1 84.14 0.1 84.14-0.35L84.14-0.35 84.14-14.9Q84.14-17.4 82.49-17.4L82.49-17.4Q81.64-17.4 80.24-16.3L80.24-16.3 80.24-0.3Q80.24 0.2 75.97 0.2 71.69 0.2 71.69-0.35L71.69-0.35 71.69-16.7 70.44-16.7Q68.79-16.7 68.79-20.15L68.79-20.15Q68.79-21.7 69.39-23.3L69.39-23.3Q70.19-25.5 71.99-25.5 73.79-25.5 75.47-24.55 77.14-23.6 77.49-22.75L77.49-22.75Q80.59-25.5 84.37-25.5 88.14-25.5 90.44-23.15L90.44-23.15Q93.14-25.5 96.94-25.5L96.94-25.5Q105.19-25.5 105.19-15.45L105.19-15.45 105.19-0.25Q105.19 0.1 100.92 0.1 96.64 0.1 96.64-0.35L96.64-0.35 96.64-14.9Q96.64-17.4 94.99-17.4L94.99-17.4Q94.09-17.4 92.69-16.3L92.69-16.3ZM146.49-34.05L146.49-1.1Q146.49-0.05 141.79-0.05 137.09-0.05 136.69-0.8L136.69-0.8 128.34-16.4 128.34-0.85Q128.34 0.05 123.71 0.05 119.09 0.05 119.09-0.85L119.09-0.85 119.09-34.3Q119.09-35.05 123.04-35.05L123.04-35.05Q124.59-35.05 126.66-34.77 128.74-34.5 129.19-33.75L129.19-33.75 137.19-18.35 137.19-34.05Q137.19-35 141.84-35 146.49-35 146.49-34.05L146.49-34.05ZM153.41-2.95Q150.29-6.4 150.29-12.5 150.29-18.6 153.41-22.05 156.54-25.5 161.84-25.5 167.14-25.5 170.24-22.05 173.34-18.6 173.34-12.5 173.34-6.4 170.24-2.95 167.14 0.5 161.84 0.5 156.54 0.5 153.41-2.95ZM161.86-17.15Q159.04-17.15 159.04-12.55 159.04-7.95 161.86-7.95 164.69-7.95 164.69-12.55 164.69-17.15 161.86-17.15ZM181.38-0.6L174.93-24.85Q174.78-25.25 179.61-25.25 184.43-25.25 184.43-25L184.43-25 188.03-8 190.73-24.75Q190.88-25.2 195.68-25.2L195.68-25.2Q200.53-25.2 200.38-24.8L200.38-24.8 193.33-0.35Q192.98 0.15 187.38 0.15 181.78 0.15 181.38-0.6L181.38-0.6ZM212.08-24.85L212.08-0.3Q212.08 0.1 207.51 0.1 202.93 0.1 202.93-0.25L202.93-0.25 202.93-24.8Q202.93-25.15 207.51-25.15 212.08-25.15 212.08-24.85L212.08-24.85ZM212.08-35.15L212.08-27.8Q212.08-27.45 207.51-27.45 202.93-27.45 202.93-27.75L202.93-27.75 202.93-34.95Q202.93-35.45 207.51-35.45 212.08-35.45 212.08-35.15L212.08-35.15ZM224.78-12.4L224.78-12.4Q224.78-7.5 228.48-7.5L228.48-7.5Q230.88-7.5 232.48-8.45L232.48-8.45Q233.23-8.45 233.7-5.88 234.18-3.3 234.18-2.38 234.18-1.45 233.93-1.15L233.93-1.15Q231.28 0.5 226.68 0.5 222.08 0.5 218.85-2.93 215.63-6.35 215.63-12.28 215.63-18.2 218.8-21.85 221.98-25.5 227.25-25.5 232.53-25.5 234.58-22.95L234.58-22.95Q235.03-22.4 235.03-21.33 235.03-20.25 234.63-18.7L234.63-18.7Q233.73-15.5 232.28-15L232.28-15Q232.08-14.95 231.7-14.95 231.33-14.95 230.78-15.55L230.78-15.55Q228.83-17.5 227.65-17.5 226.48-17.5 225.63-16.3 224.78-15.1 224.78-12.4ZM256.68-1.35L256.68-1.35Q253.53 0.5 248.58 0.5 243.63 0.5 240.23-2.88 236.83-6.25 236.83-12.23 236.83-18.2 240.1-21.85 243.38-25.5 248.38-25.5 253.38-25.5 256.1-22.95 258.83-20.4 258.83-16.75L258.83-16.75Q258.83-8.65 249.53-8.65L249.53-8.65 246.08-8.65Q246.08-7.15 246.9-6.58 247.73-6 249.33-6L249.33-6Q252.83-6 255.98-7.6L255.98-7.6Q256.03-7.65 256.43-6.9L256.43-6.9Q257.63-4.75 257.63-3.28 257.63-1.8 256.68-1.35ZM250.43-15.8L250.43-15.8Q250.43-17.9 248.38-17.9L248.38-17.9Q247.43-17.9 246.75-17.32 246.08-16.75 246.08-15.65L246.08-15.65 246.08-14.1 248.78-14.1Q250.43-14.1 250.43-15.8ZM282.97-18L282.97-0.3Q282.97 0.3 278.77 0.3L278.77 0.3Q273.77 0.1 273.77-0.35L273.77-0.35 273.77-18.05 271.22-18.05Q270.22-18.05 270.22-21.5L270.22-21.5Q270.22-22.4 270.4-23.7 270.57-25 271.12-25L271.12-25 273.77-25 273.77-29.4Q273.77-30.4 278-30.4 282.22-30.4 282.22-29.6L282.22-29.6 282.22-26.4 282.27-25 286.52-25Q287.37-25 287.37-21.5 287.37-18 286.52-18L286.52-18 282.97-18ZM292.04-2.95Q288.92-6.4 288.92-12.5 288.92-18.6 292.04-22.05 295.17-25.5 300.47-25.5 305.77-25.5 308.87-22.05 311.97-18.6 311.97-12.5 311.97-6.4 308.87-2.95 305.77 0.5 300.47 0.5 295.17 0.5 292.04-2.95ZM300.49-17.15Q297.67-17.15 297.67-12.55 297.67-7.95 300.49-7.95 303.32-7.95 303.32-12.55 303.32-17.15 300.49-17.15ZM352.56-34.05L352.56-1.1Q352.56-0.05 347.86-0.05 343.16-0.05 342.76-0.8L342.76-0.8 334.41-16.4 334.41-0.85Q334.41 0.05 329.79 0.05 325.16 0.05 325.16-0.85L325.16-0.85 325.16-34.3Q325.16-35.05 329.11-35.05L329.11-35.05Q330.66-35.05 332.74-34.77 334.81-34.5 335.26-33.75L335.26-33.75 343.26-18.35 343.26-34.05Q343.26-35 347.91-35 352.56-35 352.56-34.05L352.56-34.05ZM366.46-24.85L366.46-0.3Q366.46 0.1 361.88 0.1 357.31 0.1 357.31-0.25L357.31-0.25 357.31-24.8Q357.31-25.15 361.88-25.15 366.46-25.15 366.46-24.85L366.46-24.85ZM366.46-35.15L366.46-27.8Q366.46-27.45 361.88-27.45 357.31-27.45 357.31-27.75L357.31-27.75 357.31-34.95Q357.31-35.45 361.88-35.45 366.46-35.45 366.46-35.15L366.46-35.15ZM381.41-16.35L381.41-0.3Q381.41 0.05 377.81 0.05L377.81 0.05Q372.81-0.1 372.81-0.5L372.81-0.5 372.81-16.7 371.51-16.7Q370.21-16.7 369.81-18.9L369.81-18.9Q369.71-19.55 369.71-20.2L369.71-20.2Q369.71-21.75 370.31-23.3L370.31-23.3Q371.21-25.5 373.11-25.5 375.01-25.5 376.51-24.6 378.01-23.7 378.51-22.8L378.51-22.8Q381.66-25.5 386.01-25.5 390.36-25.5 392.31-23.15 394.26-20.8 394.26-15.45L394.26-15.45 394.26-0.45Q394.26 0.15 389.98 0.15 385.71 0.15 385.71-0.45L385.71-0.45 385.71-14.9Q385.71-17.4 383.96-17.4L383.96-17.4Q383.46-17.4 382.56-16.98 381.66-16.55 381.41-16.35L381.41-16.35ZM398.5-1.75L398.5-1.75 398.5-24.8Q398.5-25.1 403.03-25.1 407.55-25.1 407.55-24.85L407.55-24.85 407.55 1.8Q407.55 5.5 404.48 7.68 401.4 9.85 396.8 9.85L396.8 9.85Q390.35 9.85 390.35 5.35L390.35 5.35Q390.35 3.85 390.85 2.85L390.85 2.85Q391.3 2.9 392.1 2.9L392.1 2.9Q395.75 2.9 397.13 1.75 398.5 0.6 398.5-1.75ZM398.5-27.75L398.5-27.75 398.5-34.95Q398.5-35.45 403.03-35.45 407.55-35.45 407.55-35.15L407.55-35.15 407.55-27.8Q407.55-27.45 403.03-27.45 398.5-27.45 398.5-27.75ZM415.2-18.15L415.2-18.15Q413.8-20.65 413.8-22.23 413.8-23.8 414.65-24.25L414.65-24.25Q417.5-25.5 422.48-25.5 427.45-25.5 429.5-23.18 431.55-20.85 431.55-16.3L431.55-16.3 431.55-8.4 433.25-8.4Q434.1-8.4 434.58-7.4 435.05-6.4 435.05-4.65 435.05-2.9 434.18-1.2 433.3 0.5 431.8 0.5L431.8 0.5Q429.1 0.5 427.45-0.95L427.45-0.95Q426.7-1.55 426.3-2.4L426.3-2.4Q424 0.5 419.15 0.5L419.15 0.5Q415.5 0.5 413-2.1 410.5-4.7 410.5-8.25L410.5-8.25Q410.5-16.4 420.25-16.4L420.25-16.4 423-16.4 423-16.9Q423-18.2 422.58-18.57 422.15-18.95 420.6-18.95L420.6-18.95Q418.7-18.95 415.2-18.15ZM419.2-8.95L419.2-8.95Q419.2-7.85 419.8-7.28 420.4-6.7 421.33-6.7 422.25-6.7 423-7.45L423-7.45 423-11.3 421.6-11.3Q419.2-11.3 419.2-8.95Z" opacity="1" transform="matrix(1,0,0,1,0,0)" fill="#000000" class="undefined-text-1" data-fill-palette-color="secondary" id="text-1"></path></svg></g></svg></g></svg></g></svg></g><g transform="matrix(1,0,0,1,0,16.745765768198666)"><svg viewBox="0 0 142.40900117472188 124.60787602788164" height="124.60787602788164" width="142.40900117472188"><g><svg xmlns="http://www.w3.org/2000/svg" xmlns:xlink="http://www.w3.org/1999/xlink" version="1.1" x="0" y="0" viewBox="0 31.900009155273438 512 448" style="enable-background:new 0 0 512 512;" xml:space="preserve" height="124.60787602788164" width="142.40900117472188" class="icon-icon-0" data-fill-palette-color="accent" id="icon-0"><g fill="#237f09" data-fill-palette-color="accent"><path d="M160 181.3c41.2 0 74.7-33.5 74.7-74.7 0-41.2-33.5-74.7-74.7-74.7s-74.7 33.5-74.7 74.7C85.3 147.8 118.8 181.3 160 181.3z" fill="#000000" data-fill-palette-color="accent"></path><path d="M294 217.4c-11.1-10-24.4-17.7-39.1-22.1l-17.2-5-73.6 73.6-73.7-73.6-17.2 5C29.5 208.4 0 248 0 293.7V384h228.7c-3-12-4.7-24.4-4.7-37.3C224 292.7 251.9 245.1 294 217.4z" fill="#000000" data-fill-palette-color="accent"></path><path d="M378.7 213.3c-73.5 0-133.3 59.7-133.3 133.3 0 73.5 59.8 133.3 133.3 133.3S512 420.1 512 346.7C512 273.1 452.1 213.3 378.7 213.3zM343.9 366.2l-15.1 15.1-39.9-39.9 39.9-39.9 15.1 15.1-24.8 24.8L343.9 366.2zM370 401.7l-20-7.3 37.4-103 20 7.3L370 401.7zM428.5 381.3l-15.1-15.1 24.8-24.8-24.8-24.8 15.1-15.1 39.9 39.9L428.5 381.3z" fill="#000000" data-fill-palette-color="accent"></path></g></svg></g></svg></g></svg></g></svg></g></svg></g><defs></defs></svg><rect width="395.52" height="247.2" fill="none" stroke="none" visibility="hidden"></rect></g></svg></g></svg>